<?xml version="1.0" encoding="UTF-8"?>
<svg width="24px" height="24px" viewBox="0 0 24 24" version="1.1" xmlns="http://www.w3.org/2000/svg" xmlns:xlink="http://www.w3.org/1999/xlink">
    <title>icon-add</title>
    <g id="icon-add" stroke="none" stroke-width="1" fill="none" fill-rule="evenodd">
        <path d="M10.7999983,10.7999994 L10.7999983,6.0000021 L13.2000006,6.0000021 L13.2000006,10.7999994 L18.000001,10.7999994 L18.000001,13.2000017 L13.2000006,13.2000017 L13.2000006,18.0000021 L10.7999983,18.0000021 L10.7999983,13.2000017 L6.000001,13.2000017 L6.000001,10.7999994 L10.7999983,10.7999994 Z M12,24 C9.82398823,24 7.80801022,23.4560052 5.95199979,22.368 C4.14399057,21.2959948 2.70400524,19.8560094 1.63200003,18.0480002 C0.543994785,16.1919898 0,14.1760118 0,12 C0,9.82398933 0.543994785,7.80801131 1.63200003,5.95200088 C2.70400524,4.14399167 4.14399057,2.70400633 5.95199979,1.63200112 C7.80801022,0.543995514 9.82398823,0 12,0 C14.1760107,0 16.1919887,0.543995514 18.0479991,1.63200112 C19.8560083,2.70400633 21.2959937,4.14399167 22.3679989,5.95200088 C23.4560045,7.80801131 24,9.82398933 24,12 C24,14.1760118 23.4560045,16.1919898 22.3679989,18.0480002 C21.2959937,19.8560094 19.8560083,21.2959948 18.0479991,22.368 C16.1919887,23.4560052 14.1760107,24 12,24 Z M11.9999995,21.5999988 C13.7440071,21.5999988 15.3599932,21.1600041 16.847998,20.2800001 C18.2880052,19.4319969 19.4319958,18.2880063 20.279999,16.8479991 C21.160003,15.3599943 21.5999977,13.7440081 21.5999977,12.0000005 C21.5999977,10.2559929 21.160003,8.64000681 20.279999,7.15200203 C19.4319958,5.71199482 18.2880052,4.5680042 16.847998,3.72000101 C15.3599932,2.83999701 13.7440071,2.4000023 11.9999995,2.4000023 C10.2559919,2.4000023 8.64000572,2.83999701 7.15200094,3.72000101 C5.71199373,4.5680042 4.56800311,5.71199482 3.71999991,7.15200203 C2.83999591,8.64000681 2.4000012,10.2559929 2.4000012,12.0000005 C2.4000012,13.7440081 2.83999591,15.3599943 3.71999991,16.8479991 C4.56800311,18.2880063 5.71199373,19.4319969 7.15200094,20.2800001 C8.64000572,21.1600041 10.2559919,21.5999988 11.9999995,21.5999988 Z" fill="#000000"></path>
    </g>
</svg>