<?xml version="1.0" encoding="UTF-8"?>
<svg width="24px" height="24px" viewBox="0 0 24 24" version="1.1" xmlns="http://www.w3.org/2000/svg" xmlns:xlink="http://www.w3.org/1999/xlink">
    <title>icon-view</title>
    <g id="icon-view" stroke="none" stroke-width="1" fill="none" fill-rule="evenodd">
        <path d="M8.39999965,0 L8.39999965,2.39999865 L15.5999993,2.39999865 L15.5999993,0 L18,0 L18,2.39999865 L22.7999989,2.39999865 C23.136,2.39999865 23.4199972,2.51599702 23.6519976,2.74799742 C23.8840016,2.98000145 24,3.2639986 24,3.5999998 L24,22.7999963 C24,23.1359975 23.8840016,23.4199946 23.6519976,23.6519987 C23.4199972,23.8839991 23.136,24 22.7999989,24 L1.20000005,24 C0.863998494,24 0.580001345,23.8839991 0.348000224,23.6519987 C0.115999102,23.4199946 0,23.1359975 0,22.7999963 L0,3.5999998 C0,3.2639986 0.115999102,2.98000145 0.348000224,2.74799742 C0.580001345,2.51599702 0.863998494,2.39999865 1.20000005,2.39999865 L6,2.39999865 L6,0 L8.39999965,0 Z M21.5999977,8.3999971 L2.4000012,8.3999971 L2.4000012,21.5999988 L21.5999977,21.5999988 L21.5999977,8.3999971 Z M15.6480005,10.9679982 L17.3519979,12.6479969 L11.4000007,18.5999977 L7.15200094,14.351998 L8.85599841,12.6479969 L11.4000007,15.2159979 L15.6480005,10.9679982 Z" fill="#000000"></path>
    </g>
</svg>