<?xml version="1.0" encoding="UTF-8"?>
<svg width="36px" height="36px" viewBox="0 0 36 36" version="1.1" xmlns="http://www.w3.org/2000/svg" xmlns:xlink="http://www.w3.org/1999/xlink">
    <title>icon-view</title>
    <g id="icon-view" stroke="none" stroke-width="1" fill="none" fill-rule="evenodd">
        <path d="M14.3999997,6 L14.3999997,8.39999865 L21.5999993,8.39999865 L21.5999993,6 L24,6 L24,8.39999865 L28.7999989,8.39999865 C29.136,8.39999865 29.4199972,8.51599702 29.6519976,8.74799742 C29.8840016,8.98000145 30,9.2639986 30,9.5999998 L30,28.7999963 C30,29.1359975 29.8840016,29.4199946 29.6519976,29.6519987 C29.4199972,29.8839991 29.136,30 28.7999989,30 L7.20000005,30 C6.86399849,30 6.58000134,29.8839991 6.34800022,29.6519987 C6.1159991,29.4199946 6,29.1359975 6,28.7999963 L6,9.5999998 C6,9.2639986 6.1159991,8.98000145 6.34800022,8.74799742 C6.58000134,8.51599702 6.86399849,8.39999865 7.20000005,8.39999865 L12,8.39999865 L12,6 L14.3999997,6 Z M27.5999977,14.3999971 L8.4000012,14.3999971 L8.4000012,27.5999988 L27.5999977,27.5999988 L27.5999977,14.3999971 Z M21.6480005,16.9679982 L23.3519979,18.6479969 L17.4000007,24.5999977 L13.1520009,20.351998 L14.8559984,18.6479969 L17.4000007,21.2159979 L21.6480005,16.9679982 Z" fill="#000000"></path>
    </g>
</svg>