<?xml version="1.0" encoding="UTF-8"?>
<svg width="36px" height="36px" viewBox="0 0 36 36" version="1.1" xmlns="http://www.w3.org/2000/svg" xmlns:xlink="http://www.w3.org/1999/xlink">
    <title>icon-settings</title>
    <g id="icon-settings" stroke="none" stroke-width="1" fill="none" fill-rule="evenodd">
        <path d="M6,17.5680006 C6,16.5439966 6.12799886,15.5440059 6.38400022,14.5679995 C7.05600334,14.6000003 7.68799598,14.456004 8.27999999,14.1359995 C8.87200401,13.8159988 9.33999669,13.3600036 9.68399992,12.7679996 C10.0280031,12.1759993 10.1919991,11.5440033 10.1759987,10.8720009 C10.1599983,10.1999986 9.96800071,9.57600466 9.59999871,9 C11.0720067,7.55999384 12.7999884,6.56000321 14.7839984,6 C15.0880025,6.60800442 15.5319964,7.08799832 16.1159983,7.43999992 C16.700004,7.79200152 17.3279971,7.96800232 18,7.96800232 C18.6720018,7.96800232 19.2959957,7.79200152 19.8719993,7.43999992 C20.448003,7.08799832 20.8959961,6.60800442 21.2160005,6 C23.2000105,6.56000321 24.9279922,7.55999384 26.4000002,9 C26.0319982,9.57600466 25.8400006,10.1999986 25.8240002,10.8720009 C25.8079998,11.5440033 25.9679966,12.1759993 26.3039978,12.7679996 C26.639999,13.3600036 27.1079953,13.8159988 27.7079977,14.1359995 C28.3080001,14.456004 28.9439952,14.6000003 29.6159976,14.5679995 C29.8720004,15.5440059 30,16.5439966 30,17.5680006 C30,18.5920046 29.8720004,19.5919952 29.6159976,20.5680016 C28.9439952,20.5360008 28.3120029,20.6799972 27.7199989,21 C27.1279949,21.3200024 26.6600022,21.7759975 26.315999,22.3680015 C25.9719958,22.9600019 25.8079998,23.5919978 25.8240002,24.2640002 C25.8400006,24.9360026 26.0319982,25.5599965 26.4000002,26.1360001 C24.9279922,27.5760073 23.2000105,28.5759972 21.2160005,29.136 C20.8959961,28.5279971 20.448003,28.0480028 19.8719993,27.6960012 C19.2959957,27.3439996 18.6720018,27.1679988 18,27.1679988 C17.3279971,27.1679988 16.700004,27.3439996 16.1159983,27.6960012 C15.5319964,28.0480028 15.0880025,28.5279971 14.7839984,29.136 C12.7999884,28.5759972 11.0640083,27.5760073 9.57599992,26.1360001 C9.96000233,25.5599965 10.1599983,24.9360026 10.1759987,24.2640002 C10.1919991,23.5919978 10.0280031,22.9600019 9.68399992,22.3680015 C9.33999669,21.7759975 8.87200401,21.3200024 8.27999999,21 C7.68799598,20.6799972 7.05600334,20.5360008 6.38400022,20.5680016 C6.12799886,19.5919952 6,18.5920046 6,17.5680006 Z M11.7599986,21.1680004 C12.144001,21.808002 12.3919981,22.4919983 12.504001,23.2200003 C12.6160002,23.9480022 12.5920014,24.6719977 12.432001,25.3920014 C12.9280026,25.744003 13.4479957,26.0479997 13.9919985,26.3039989 C14.5520017,25.8079973 15.1759956,25.4280013 15.8639984,25.1640001 C16.5520012,24.8999989 17.2679946,24.7680002 18.0120007,24.7680002 C18.7560031,24.7680002 19.4719965,24.8999989 20.1599993,25.1640001 C20.8480021,25.4280013 21.4639976,25.8079973 22.0080004,26.3039989 C22.5520033,26.0479997 23.0719963,25.744003 23.5679979,25.3920014 C23.4079975,24.6719977 23.3879979,23.9480022 23.5079991,23.2200003 C23.6280004,22.4919983 23.8719983,21.808002 24.2400003,21.1680004 C24.6080023,20.5279988 25.075995,19.9760012 25.6440002,19.5120005 C26.2120018,19.0479997 26.8479969,18.7040001 27.5520001,18.4800017 C27.6159981,17.8719973 27.6159981,17.2640038 27.5520001,16.6559994 C26.8479969,16.432001 26.2120018,16.0880015 25.6440002,15.6240007 C25.075995,15.1599999 24.6080023,14.6080024 24.2400003,13.9680008 C23.8719983,13.3279992 23.6280004,12.6440029 23.5079991,11.9160009 C23.3879979,11.1879989 23.4079975,10.4640034 23.5679979,9.74399979 C23.0719963,9.39199819 22.5520033,9.08800145 22.0080004,8.83200227 C21.4479972,9.32800387 20.8240033,9.70799979 20.1360005,9.97200099 C19.4479978,10.2360022 18.7360035,10.368001 17.9999995,10.368001 C17.2639954,10.368001 16.5520012,10.2360022 15.8639984,9.97200099 C15.1759956,9.70799979 14.5520017,9.32800387 13.9919985,8.83200227 C13.4479957,9.08800145 12.9280026,9.39199819 12.432001,9.74399979 C12.5920014,10.4640034 12.612001,11.1879989 12.4919998,11.9160009 C12.3719986,12.6440029 12.1280006,13.3279992 11.7599986,13.9680008 C11.3919966,14.6080024 10.9240039,15.1599999 10.3559987,15.6240007 C9.78799708,16.0880015 9.15200197,16.432001 8.44799877,16.6559994 C8.3840008,17.2640038 8.3840008,17.8719973 8.44799877,18.4800017 C9.15200197,18.7040001 9.78799708,19.0479997 10.3559987,19.5120005 C10.9240039,19.9760012 11.3919966,20.5279988 11.7599986,21.1680004 Z M17.9999995,21.1680004 C17.3439975,21.1680004 16.7400032,21.0080036 16.1879983,20.6879992 C15.6359972,20.3679984 15.2000016,19.9320029 14.8800008,19.3800017 C14.5599964,18.8279969 14.3999997,18.2240026 14.3999997,17.5680006 C14.3999997,16.9119986 14.5599964,16.3080043 14.8800008,15.7559995 C15.2000016,15.2039983 15.6359972,14.7680028 16.1879983,14.448002 C16.7400032,14.1279975 17.3439975,13.9680008 17.9999995,13.9680008 C18.6560014,13.9680008 19.2599957,14.1279975 19.8120006,14.448002 C20.3640018,14.7680028 20.7999973,15.2039983 21.1199981,15.7559995 C21.4400025,16.3080043 21.5999993,16.9119986 21.5999993,17.5680006 C21.5999993,18.2240026 21.4400025,18.8279969 21.1199981,19.3800017 C20.7999973,19.9320029 20.3640018,20.3679984 19.8120006,20.6879992 C19.2599957,21.0080036 18.6560014,21.1680004 17.9999995,21.1680004 Z M17.9999995,18.7680017 C18.3360006,18.7680017 18.6199978,18.6520033 18.8519982,18.4199993 C19.0840022,18.1879989 19.2000006,17.9040018 19.2000006,17.5680006 C19.2000006,17.2319994 19.0840022,16.9480022 18.8519982,16.7160018 C18.6199978,16.4839978 18.3360006,16.3679994 17.9999995,16.3679994 C17.6639983,16.3679994 17.3800011,16.4839978 17.1480007,16.7160018 C16.9159967,16.9480022 16.7999983,17.2319994 16.7999983,17.5680006 C16.7999983,17.9040018 16.9159967,18.1879989 17.1480007,18.4199993 C17.3800011,18.6520033 17.6639983,18.7680017 17.9999995,18.7680017 Z" fill="#000000"></path>
    </g>
</svg>