<?xml version="1.0" encoding="UTF-8"?>
<svg width="36px" height="36px" viewBox="0 0 36 36" version="1.1" xmlns="http://www.w3.org/2000/svg" xmlns:xlink="http://www.w3.org/1999/xlink">
    <title>icon-add</title>
    <g id="icon-add" stroke="none" stroke-width="1" fill="none" fill-rule="evenodd">
        <path d="M16.7999983,16.7999994 L16.7999983,12.0000021 L19.2000006,12.0000021 L19.2000006,16.7999994 L24.000001,16.7999994 L24.000001,19.2000017 L19.2000006,19.2000017 L19.2000006,24.0000021 L16.7999983,24.0000021 L16.7999983,19.2000017 L12.000001,19.2000017 L12.000001,16.7999994 L16.7999983,16.7999994 Z M18,30 C15.8239882,30 13.8080102,29.4560052 11.9519998,28.368 C10.1439906,27.2959948 8.70400524,25.8560094 7.63200003,24.0480002 C6.54399478,22.1919898 6,20.1760118 6,18 C6,15.8239893 6.54399478,13.8080113 7.63200003,11.9520009 C8.70400524,10.1439917 10.1439906,8.70400633 11.9519998,7.63200112 C13.8080102,6.54399551 15.8239882,6 18,6 C20.1760107,6 22.1919887,6.54399551 24.0479991,7.63200112 C25.8560083,8.70400633 27.2959937,10.1439917 28.3679989,11.9520009 C29.4560045,13.8080113 30,15.8239893 30,18 C30,20.1760118 29.4560045,22.1919898 28.3679989,24.0480002 C27.2959937,25.8560094 25.8560083,27.2959948 24.0479991,28.368 C22.1919887,29.4560052 20.1760107,30 18,30 Z M17.9999995,27.5999988 C19.7440071,27.5999988 21.3599932,27.1600041 22.847998,26.2800001 C24.2880052,25.4319969 25.4319958,24.2880063 26.279999,22.8479991 C27.160003,21.3599943 27.5999977,19.7440081 27.5999977,18.0000005 C27.5999977,16.2559929 27.160003,14.6400068 26.279999,13.152002 C25.4319958,11.7119948 24.2880052,10.5680042 22.847998,9.72000101 C21.3599932,8.83999701 19.7440071,8.4000023 17.9999995,8.4000023 C16.2559919,8.4000023 14.6400057,8.83999701 13.1520009,9.72000101 C11.7119937,10.5680042 10.5680031,11.7119948 9.71999991,13.152002 C8.83999591,14.6400068 8.4000012,16.2559929 8.4000012,18.0000005 C8.4000012,19.7440081 8.83999591,21.3599943 9.71999991,22.8479991 C10.5680031,24.2880063 11.7119937,25.4319969 13.1520009,26.2800001 C14.6400057,27.1600041 16.2559919,27.5999988 17.9999995,27.5999988 Z" fill="#000000"></path>
        </g>
</svg>