<?xml version="1.0" encoding="UTF-8"?>
<svg width="24px" height="24px" viewBox="0 0 24 24" version="1.1" xmlns="http://www.w3.org/2000/svg" xmlns:xlink="http://www.w3.org/1999/xlink">
    <title>icon-settings</title>
    <g id="icon-settings" stroke="none" stroke-width="1" fill="none" fill-rule="evenodd">
        <path d="M0,11.5680006 C0,10.5439966 0.127998859,9.54400595 0.384000222,8.56799952 C1.05600334,8.60000033 1.68799598,8.45600398 2.27999999,8.13599955 C2.87200401,7.81599875 3.33999669,7.36000364 3.68399992,6.76799962 C4.02800314,6.17599925 4.19199908,5.54400334 4.17599867,4.87200094 C4.15999827,4.19999855 3.96800071,3.57600466 3.59999871,3 C5.07200673,1.55999384 6.7999884,0.560003209 8.78399842,0 C9.08800245,0.608004422 9.53199635,1.08799832 10.1159983,1.43999992 C10.700004,1.79200152 11.3279971,1.96800232 12,1.96800232 C12.6720018,1.96800232 13.2959957,1.79200152 13.8719993,1.43999992 C14.448003,1.08799832 14.8959961,0.608004422 15.2160005,0 C17.2000105,0.560003209 18.9279922,1.55999384 20.4000002,3 C20.0319982,3.57600466 19.8400006,4.19999855 19.8240002,4.87200094 C19.8079998,5.54400334 19.9679966,6.17599925 20.3039978,6.76799962 C20.639999,7.36000364 21.1079953,7.81599875 21.7079977,8.13599955 C22.3080001,8.45600398 22.9439952,8.60000033 23.6159976,8.56799952 C23.8720004,9.54400595 24,10.5439966 24,11.5680006 C24,12.5920046 23.8720004,13.5919952 23.6159976,14.5680016 C22.9439952,14.5360008 22.3120029,14.6799972 21.7199989,15 C21.1279949,15.3200024 20.6600022,15.7759975 20.315999,16.3680015 C19.9719958,16.9600019 19.8079998,17.5919978 19.8240002,18.2640002 C19.8400006,18.9360026 20.0319982,19.5599965 20.4000002,20.1360001 C18.9279922,21.5760073 17.2000105,22.5759972 15.2160005,23.136 C14.8959961,22.5279971 14.448003,22.0480028 13.8719993,21.6960012 C13.2959957,21.3439996 12.6720018,21.1679988 12,21.1679988 C11.3279971,21.1679988 10.700004,21.3439996 10.1159983,21.6960012 C9.53199635,22.0480028 9.08800245,22.5279971 8.78399842,23.136 C6.7999884,22.5759972 5.06400835,21.5760073 3.57599992,20.1360001 C3.96000233,19.5599965 4.15999827,18.9360026 4.17599867,18.2640002 C4.19199908,17.5919978 4.02800314,16.9600019 3.68399992,16.3680015 C3.33999669,15.7759975 2.87200401,15.3200024 2.27999999,15 C1.68799598,14.6799972 1.05600334,14.5360008 0.384000222,14.5680016 C0.127998859,13.5919952 0,12.5920046 0,11.5680006 Z M5.75999859,15.1680004 C6.14400099,15.808002 6.39199815,16.4919983 6.50400097,17.2200003 C6.61600016,17.9480022 6.59200137,18.6719977 6.43200098,19.3920014 C6.92800257,19.744003 7.44799566,20.0479997 7.99199846,20.3039989 C8.55200167,19.8079973 9.17599556,19.4280013 9.86399836,19.1640001 C10.5520012,18.8999989 11.2679946,18.7680002 12.0120007,18.7680002 C12.7560031,18.7680002 13.4719965,18.8999989 14.1599993,19.1640001 C14.8480021,19.4280013 15.4639976,19.8079973 16.0080004,20.3039989 C16.5520033,20.0479997 17.0719963,19.744003 17.5679979,19.3920014 C17.4079975,18.6719977 17.3879979,17.9480022 17.5079991,17.2200003 C17.6280004,16.4919983 17.8719983,15.808002 18.2400003,15.1680004 C18.6080023,14.5279988 19.075995,13.9760012 19.6440002,13.5120005 C20.2120018,13.0479997 20.8479969,12.7040001 21.5520001,12.4800017 C21.6159981,11.8719973 21.6159981,11.2640038 21.5520001,10.6559994 C20.8479969,10.432001 20.2120018,10.0880015 19.6440002,9.62400068 C19.075995,9.15999989 18.6080023,8.60800236 18.2400003,7.96800077 C17.8719983,7.32799919 17.6280004,6.64400287 17.5079991,5.91600089 C17.3879979,5.1879989 17.4079975,4.4640034 17.5679979,3.74399979 C17.0719963,3.39199819 16.5520033,3.08800145 16.0080004,2.83200227 C15.4479972,3.32800387 14.8240033,3.70799979 14.1360005,3.97200099 C13.4479978,4.23600219 12.7360035,4.36800097 11.9999995,4.36800097 C11.2639954,4.36800097 10.5520012,4.23600219 9.86399836,3.97200099 C9.17599556,3.70799979 8.55200167,3.32800387 7.99199846,2.83200227 C7.44799566,3.08800145 6.92800257,3.39199819 6.43200098,3.74399979 C6.59200137,4.4640034 6.61200097,5.1879989 6.49199976,5.91600089 C6.37199855,6.64400287 6.12800059,7.32799919 5.75999859,7.96800077 C5.39199658,8.60800236 4.9240039,9.15999989 4.35599866,9.62400068 C3.78799708,10.0880015 3.15200197,10.432001 2.44799877,10.6559994 C2.3840008,11.2640038 2.3840008,11.8719973 2.44799877,12.4800017 C3.15200197,12.7040001 3.78799708,13.0479997 4.35599866,13.5120005 C4.9240039,13.9760012 5.39199658,14.5279988 5.75999859,15.1680004 Z M11.9999995,15.1680004 C11.3439975,15.1680004 10.7400032,15.0080036 10.1879983,14.6879992 C9.63599715,14.3679984 9.20000163,13.9320029 8.88000084,13.3800017 C8.5599964,12.8279969 8.39999965,12.2240026 8.39999965,11.5680006 C8.39999965,10.9119986 8.5599964,10.3080043 8.88000084,9.75599946 C9.20000163,9.20399827 9.63599715,8.76800275 10.1879983,8.44800196 C10.7400032,8.12799752 11.3439975,7.96800077 11.9999995,7.96800077 C12.6560014,7.96800077 13.2599957,8.12799752 13.8120006,8.44800196 C14.3640018,8.76800275 14.7999973,9.20399827 15.1199981,9.75599946 C15.4400025,10.3080043 15.5999993,10.9119986 15.5999993,11.5680006 C15.5999993,12.2240026 15.4400025,12.8279969 15.1199981,13.3800017 C14.7999973,13.9320029 14.3640018,14.3679984 13.8120006,14.6879992 C13.2599957,15.0080036 12.6560014,15.1680004 11.9999995,15.1680004 Z M11.9999995,12.7680017 C12.3360006,12.7680017 12.6199978,12.6520033 12.8519982,12.4199993 C13.0840022,12.1879989 13.2000006,11.9040018 13.2000006,11.5680006 C13.2000006,11.2319994 13.0840022,10.9480022 12.8519982,10.7160018 C12.6199978,10.4839978 12.3360006,10.3679994 11.9999995,10.3679994 C11.6639983,10.3679994 11.3800011,10.4839978 11.1480007,10.7160018 C10.9159967,10.9480022 10.7999983,11.2319994 10.7999983,11.5680006 C10.7999983,11.9040018 10.9159967,12.1879989 11.1480007,12.4199993 C11.3800011,12.6520033 11.6639983,12.7680017 11.9999995,12.7680017 Z" fill="#000000"></path>
    </g>
</svg>